# xmcd CD database file
#
# Track frame offsets:
#	150
#	28926
#	50825
#	74255
#	94203
#	111179
#	130095
#	150006
#	161618
#	186364
#	203381
#	222741
#	251768
#	266477
#	285869
#	304677
#
# Disc length: 4280 seconds
#
# Revision: 0
# Processed by: cddbd v1.4PL0 Copyright (c) Steve Scherf et al.
# Submitted via: Feurio! 1.64 - http://www.feurio.com
#
DISCID=e310b610
DTITLE=Various Artist - Neues Projekt
DYEAR=1900
DGENRE=
TTITLE0=Aaron Hall - I Miss You
TTITLE1=Al Green - Let's Get Together
TTITLE2=Barbara Streisand and Don Johnson - Till I Loved You
TTITLE3=Barry Gibb and Barbra Streisand - Guilty
TTITLE4=Beware Of Dog - Lil Bow Wow - Bow Wow (That's My Name) (Feat. Snoop 
TTITLE4=Dogg)
TTITLE5=Dru Hill, JD and Da Brat - Sleepin In My Bed (remix)
TTITLE6=Eric Benet f. Faith Evans - Georgey Porgey
TTITLE7=Immature - We Got It
TTITLE8=Leon Haywood - Don't push it don't force it
TTITLE9=Ludacris - Area Code (Feat. Nate Dogg)
TTITLE10=Mystikal - Shake Ya Ass
TTITLE11=Nucleus - Jam On It
TTITLE12=Pink - Get This Party Started
TTITLE13=Randy Crawford - Street Life
TTITLE14=Tone Loc - Funky Cold Madina
TTITLE15=Uncel Kracker - Follow M4e
EXTD=
EXTT0=
EXTT1=Made with RealJukebox (tm)
EXTT2=
EXTT3=
EXTT4=
EXTT5=
EXTT6=
EXTT7=
EXTT8=
EXTT9=
EXTT10=http://www.themusiclover.com
EXTT11=
EXTT12=Pink's brand new single from her upcoming sophomore album!
EXTT13=
EXTT14=
EXTT15=
PLAYORDER=
